<svg version="1.1" viewBox="-19 -80 514 112" xmlns="http://www.w3.org/2000/svg">
  <g id="main">
    <path class="pen" d="
      M  0  24 v -72 h  24     v  48    h -24
      m 48   0 v -48 h  24     v  48    h -24
      m 48   0 v -48
      m 24  48 v -48 h  12     l  12 12 v  36
      m 24 -72 v  72 h  12
      m 48 -72 v  72 h -24     v -48    h  24
      m 24  24 h  24 v -24     h -24    v  48   h 24
      m 24   0 v -12 l  24 -24 v -12    m -24 0 v 12 l 24 24 v 12
      m 48   0 h -12 v -72     m -12 24 h  24
      m 24  24 h  24 v -24     h -24    v  48   h 24
      m 24   0 v -48 h  24
      " />
    <path d="M 144 -56 h 44 v 16 h -28" />
    <path class="pen accent" d="M 96 -72 h 0" />
  </g>
  <style type="text/css">
    path {
      stroke: black;
      fill: black;
    }
    @media (prefers-color-scheme: dark) {
      path {
        stroke: white;
        fill: white;
      }
    }
    .accent { stroke: #ff4f00; }
    #main {
      transform: skewX(-18deg);
    }
    .pen {
      fill: none;
      stroke-width: 16px;
      stroke-linecap: square;
    }
  </style>
</svg>
