<svg version="1.1" viewBox="0 -80 304 112" xmlns="http://www.w3.org/2000/svg"
  xmlns:xlink="http://www.w3.org/1999/xlink">
  <g id="main">
    <path d="
      M 12 0 l 0 -48 l 24 0
      m 24 0 l 24 0 l 0 48 l -24 0 l 0 -24 l 24 0
      m 48 -24 l -24 0 l 0 48 l 24 0 l 0 -72
      m 24 72 l 0 -48
      m 24 0 l 0 48 l 24 0 l 0 -48
      m 24 0 l 0 48 m 0 -48 l 24 0 l 0 48 m 0 -48 l 24 0 l 0 48
      " />
    <path class="stroke-accent" d="M 12 0 m 96 0 m 48 -72 l 0 0" />
  </g>
  <style type="text/css">
    path {
      stroke: black;
    }

    @media (prefers-color-scheme: dark) {
      path {
        stroke: white;
      }
    }

    .stroke-accent {
      stroke: #ff4f00;
    }

    * {
      shape-rendering: crispEdges;
    }

    #main {
      transform: skewX(-18deg);
    }

    path {
      fill: none;
      stroke-width: 16px;
      stroke-linecap: square;
      stroke-linejoin: miter;
    }
  </style>
</svg>
