<svg version="1.1" viewBox="0 -104 340 112" xmlns="http://www.w3.org/2000/svg"
  xmlns:xlink="http://www.w3.org/1999/xlink">
  <!-- <rect x="0" y="-104" width="340" height="112" fill="lightgrey" /> -->
  <g id="main">
    <path class="pen-sq stroke-fg" d="
      M 12 0
      l 16 0 l 0 -72 l 132 0 m -132 0 l 0 -24 l 156 0 m -156 96
      m 24 0 m 0 -24 l 24 0 l 0 -24 l -24 0 l 0 48 l 24 0
      m 24 0 l 0 -48 l 18 0 m 0 48
      m 24 0 l 0 -48 l 18 0 m 0 48
      m 24 0 l 0 -48 m 0 48
      m 24 0 l 0 -96 m 0 96 l 96 0 m -96 -96
      m 24 24 l 24 0 l 0 48 l -24 0 l 0 -24 l 24 0
      m 24 -24 l 24 0 l 0 48 l -24 0 l 0 -72
      " />
    <path class="pen-sq stroke-accent" d="M 12 0 m 172 -72 l 0 0" stroke="rgb(247, 76, 0)" />
  </g>
  <style type="text/css">
    svg {
      height: 512px;
    }
    #main {
      transform: skewX(-18deg);
    }
    .stroke-fg { stroke: black; }
    @media (prefers-color-scheme: dark) {
      .stroke-fg { stroke: white; }
    }
    .stroke-accent { stroke: #ff4f00; }
    .pen-sq {
      fill: none;
      stroke-width: 16px;
      stroke-linecap: square;
      stroke-linejoin: miter;
    }
  </style>
</svg>
