<svg version="1.1" viewBox="-40 -140 256 256" xmlns="http://www.w3.org/2000/svg"
  xmlns:xlink="http://www.w3.org/1999/xlink">
  <g transform="skewX(-18)">
    <path d="
        M 0 -12 l 0 -96 l 168 0 m -24 24 l -144 0
        M 24 -36 l 24 0 l 0 -24 l -24 0 l 0 48 l 24 0
        m 24 0 l 0 -48 l 24 0
        m 24 48 l 0 -48 l 24 0
        m 24 48 l 0 -48
        M 0 12 l 0 72 l 144 0
        M 24 12 l 24 0 l 0 48 l -24 0 l 0 -24 l 24 0
        m 24 0 l 24 0 l 0 24 l -24 0 l 0 -48
        m 96 0 l 0 48
      " />
    <path class="stroke-accent" d="M 168 84 l 0 0 m 0 -168 l 0 0" />
  </g>
  <style type="text/css">
    path {
      stroke: black;
    }

    @media (prefers-color-scheme: dark) {
      path {
        stroke: white;
      }
    }

    .stroke-accent {
      stroke: #ff4f00;
    }

    * {
      shape-rendering: crispEdges;
    }

    path {
      fill: none;
      stroke-width: 16px;
      stroke-linecap: square;
      stroke-linejoin: miter;
    }
  </style>
</svg>
